<?xml version="1.0" ?><svg enable-background="new 0 0 500 500" id="Layer_1" version="1.1" viewBox="0 0 500 500" xml:space="preserve" xmlns="http://www.w3.org/2000/svg" xmlns:xlink="http://www.w3.org/1999/xlink"><g><path d="M414.593,286H252v-81.613c0-2.761-2.239-5-5-5s-5,2.239-5,5V286H78.49C64.182,286,53,298.027,53,312.335   v54.051c0,2.761,2.239,5,5,5s5-2.239,5-5v-54.051C63,303.541,69.696,296,78.49,296H176v75.387c0,2.761,2.239,5,5,5s5-2.239,5-5V296   h60.541H314v75.387c0,2.761,2.239,5,5,5s5-2.239,5-5V296h90.593c8.794,0,16.407,7.541,16.407,16.335v54.051c0,2.761,2.239,5,5,5   s5-2.239,5-5v-54.051C441,298.027,428.901,286,414.593,286z" fill="#F2F2F2"/><circle cx="57.402" cy="376.269" fill="#4384EC" r="26.821"/><circle cx="180.202" cy="376.269" fill="#4384EC" r="26.821"/><circle cx="319.003" cy="376.269" fill="#4384EC" r="26.821"/><path d="M440.213,342.707l5.091,15.668c0.658,2.024,2.543,3.394,4.671,3.394h16.475   c4.758,0,6.736,6.089,2.887,8.885l-13.329,9.685c-1.721,1.251-2.442,3.468-1.784,5.491l5.091,15.669   c1.47,4.525-3.709,8.288-7.558,5.492l-13.328-9.683c-1.722-1.251-4.053-1.251-5.774,0l-13.328,9.684   c-3.849,2.797-9.029-0.966-7.559-5.491l5.091-15.67c0.658-2.024-0.063-4.241-1.784-5.491l-13.329-9.685   c-3.849-2.797-1.871-8.885,2.887-8.885h16.475c2.128,0,4.014-1.37,4.671-3.394l5.091-15.668   C432.34,338.182,438.742,338.182,440.213,342.707z" fill="#FECC5D"/><path d="M247,234.677c1.685,0,3-0.086,5-0.219v-38.071c0-2.761-2.239-5-5-5s-5,2.239-5,5v38.071   C243,234.59,245.315,234.677,247,234.677z" fill="#CAD8EF"/><circle cx="246.541" cy="161.102" fill="#4384EC" r="61.741"/></g></svg>