<?xml version="1.0" ?><svg enable-background="new 0 0 500 500" id="Layer_1" version="1.1" viewBox="0 0 500 500" xml:space="preserve" xmlns="http://www.w3.org/2000/svg" xmlns:xlink="http://www.w3.org/1999/xlink"><g><rect fill="#F3F3F3" height="282.929" width="357.891" x="28.998" y="116.255"/><polygon fill="#E2DEDE" points="29.127,116.51 161.559,73 444.756,73 386.889,116.789  "/><g><path d="M47.226,139h339.707c1.426,0,2.581-1.574,2.581-3s-1.156-3-2.581-3H47.226c-1.426,0-2.581,1.574-2.581,3    S45.8,139,47.226,139z" fill="#E2DEDE"/><path d="M386.933,153H91.625c-1.426,0-2.581,1.074-2.581,2.5s1.156,2.5,2.581,2.5h295.308    c1.426,0,2.581-1.074,2.581-2.5S388.359,153,386.933,153z" fill="#E2DEDE"/><path d="M386.933,174H65.812c-1.426,0-2.581,1.074-2.581,2.5s1.156,2.5,2.581,2.5h321.122    c1.426,0,2.581-1.074,2.581-2.5S388.359,174,386.933,174z" fill="#E2DEDE"/><path d="M386.933,193H47.226c-1.426,0-2.581,1.574-2.581,3s1.156,3,2.581,3h339.707c1.426,0,2.581-1.574,2.581-3    S388.359,193,386.933,193z" fill="#E2DEDE"/><path d="M386.933,214H77.17c-1.426,0-2.581,1.074-2.581,2.5s1.156,2.5,2.581,2.5h309.764    c1.426,0,2.581-1.074,2.581-2.5S388.359,214,386.933,214z" fill="#E2DEDE"/><path d="M386.933,235H47.226c-1.426,0-2.581,1.074-2.581,2.5s1.156,2.5,2.581,2.5h339.707    c1.426,0,2.581-1.074,2.581-2.5S388.359,235,386.933,235z" fill="#E2DEDE"/><path d="M386.933,255H59.616c-1.426,0-2.581,1.074-2.581,2.5s1.156,2.5,2.581,2.5h327.317    c1.426,0,2.581-1.074,2.581-2.5S388.359,255,386.933,255z" fill="#E2DEDE"/><path d="M386.933,276H47.226c-1.426,0-2.581,1.074-2.581,2.5s1.156,2.5,2.581,2.5h339.707    c1.426,0,2.581-1.074,2.581-2.5S388.359,276,386.933,276z" fill="#E2DEDE"/><path d="M386.933,296H91.625c-1.426,0-2.581,1.074-2.581,2.5s1.156,2.5,2.581,2.5h295.308    c1.426,0,2.581-1.074,2.581-2.5S388.359,296,386.933,296z" fill="#E2DEDE"/><path d="M386.933,316H47.226c-1.426,0-2.581,1.074-2.581,2.5s1.156,2.5,2.581,2.5h339.707    c1.426,0,2.581-1.074,2.581-2.5S388.359,316,386.933,316z" fill="#E2DEDE"/><path d="M386.933,337H36.9c-1.426,0-2.581,1.074-2.581,2.5s1.156,2.5,2.581,2.5h350.033    c1.426,0,2.581-1.074,2.581-2.5S388.359,337,386.933,337z" fill="#E2DEDE"/><path d="M386.933,357H63.747c-1.426,0-2.581,1.074-2.581,2.5s1.156,2.5,2.581,2.5h323.187    c1.426,0,2.581-1.074,2.581-2.5S388.359,357,386.933,357z" fill="#E2DEDE"/><path d="M386.933,377H47.226c-1.426,0-2.581,1.074-2.581,2.5s1.156,2.5,2.581,2.5h339.707    c1.426,0,2.581-1.074,2.581-2.5S388.359,377,386.933,377z" fill="#E2DEDE"/></g><path d="M211.917,399.604l20.135-215.103c0-10.08,8.172-18.252,18.252-18.252h136.63l-0.044,232.935   L211.917,399.604z" fill="#E2DEDE"/><polygon fill="#D3CDCD" points="445,72.288 445,348.021 387.314,399.184 387.072,116.255  "/><g><path d="M451.171,435.025H272.035c-12.144,0-21.988-9.844-21.988-21.988V167.728    c0-12.144,9.844-21.988,21.988-21.988h179.136c12.144,0,21.988,9.844,21.988,21.988v245.309    C473.159,425.181,463.315,435.025,451.171,435.025z" fill="#4384EC"/><path d="M445.634,211.603H277.572c-4.343,0-7.863-3.521-7.863-7.863v-23.666c0-4.343,3.521-7.863,7.863-7.863    h168.062c4.343,0,7.863,3.521,7.863,7.863v23.666C453.497,208.083,449.977,211.603,445.634,211.603z" fill="#FFFFFF"/><path d="M293.612,257.753h-11.156c-6.45,0-11.678-5.229-11.678-11.678v-0.76c0-6.45,5.229-11.678,11.678-11.678    h11.156c6.45,0,11.678,5.229,11.678,11.678v0.76C305.29,252.524,300.061,257.753,293.612,257.753z" fill="#FFFFFF"/><path d="M293.612,308.916h-11.156c-6.45,0-11.678-5.229-11.678-11.678v-0.76c0-6.45,5.229-11.678,11.678-11.678    h11.156c6.45,0,11.678,5.229,11.678,11.678v0.76C305.29,303.687,300.061,308.916,293.612,308.916z" fill="#FFFFFF"/><path d="M293.612,360.079h-11.156c-6.45,0-11.678-5.229-11.678-11.678v-0.76c0-6.45,5.229-11.678,11.678-11.678    h11.156c6.45,0,11.678,5.229,11.678,11.678v0.76C305.29,354.851,300.061,360.079,293.612,360.079z" fill="#FFFFFF"/><path d="M293.612,411.242h-11.156c-6.45,0-11.678-5.229-11.678-11.678v-0.76c0-6.45,5.229-11.678,11.678-11.678    h11.156c6.45,0,11.678,5.229,11.678,11.678v0.76C305.29,406.014,300.061,411.242,293.612,411.242z" fill="#FFFFFF"/><path d="M343.039,257.753h-11.156c-6.45,0-11.678-5.229-11.678-11.678v-0.76c0-6.45,5.229-11.678,11.678-11.678    h11.156c6.45,0,11.678,5.229,11.678,11.678v0.76C354.718,252.524,349.489,257.753,343.039,257.753z" fill="#FFFFFF"/><path d="M343.039,308.916h-11.156c-6.45,0-11.678-5.229-11.678-11.678v-0.76c0-6.45,5.229-11.678,11.678-11.678    h11.156c6.45,0,11.678,5.229,11.678,11.678v0.76C354.718,303.687,349.489,308.916,343.039,308.916z" fill="#FFFFFF"/><path d="M343.039,360.079h-11.156c-6.45,0-11.678-5.229-11.678-11.678v-0.76c0-6.45,5.229-11.678,11.678-11.678    h11.156c6.45,0,11.678,5.229,11.678,11.678v0.76C354.718,354.851,349.489,360.079,343.039,360.079z" fill="#FFFFFF"/><path d="M343.039,411.242h-11.156c-6.45,0-11.678-5.229-11.678-11.678v-0.76c0-6.45,5.229-11.678,11.678-11.678    h11.156c6.45,0,11.678,5.229,11.678,11.678v0.76C354.718,406.014,349.489,411.242,343.039,411.242z" fill="#FFFFFF"/><path d="M392.467,257.753h-11.156c-6.45,0-11.678-5.229-11.678-11.678v-0.76c0-6.45,5.229-11.678,11.678-11.678    h11.156c6.45,0,11.678,5.229,11.678,11.678v0.76C404.145,252.524,398.917,257.753,392.467,257.753z" fill="#FFFFFF"/><path d="M392.467,308.916h-11.156c-6.45,0-11.678-5.229-11.678-11.678v-0.76c0-6.45,5.229-11.678,11.678-11.678    h11.156c6.45,0,11.678,5.229,11.678,11.678v0.76C404.145,303.687,398.917,308.916,392.467,308.916z" fill="#FFFFFF"/><path d="M392.467,360.079h-11.156c-6.45,0-11.678-5.229-11.678-11.678v-0.76c0-6.45,5.229-11.678,11.678-11.678    h11.156c6.45,0,11.678,5.229,11.678,11.678v0.76C404.145,354.851,398.917,360.079,392.467,360.079z" fill="#FFFFFF"/><path d="M392.467,411.242h-11.156c-6.45,0-11.678-5.229-11.678-11.678v-0.76c0-6.45,5.229-11.678,11.678-11.678    h11.156c6.45,0,11.678,5.229,11.678,11.678v0.76C404.145,406.014,398.917,411.242,392.467,411.242z" fill="#FFFFFF"/><path d="M441.895,257.753h-11.156c-6.45,0-11.678-5.229-11.678-11.678v-0.76c0-6.45,5.229-11.678,11.678-11.678    h11.156c6.45,0,11.678,5.229,11.678,11.678v0.76C453.573,252.524,448.345,257.753,441.895,257.753z" fill="#FFFFFF"/><path d="M441.895,308.916h-11.156c-6.45,0-11.678-5.229-11.678-11.678v-0.76c0-6.45,5.229-11.678,11.678-11.678    h11.156c6.45,0,11.678,5.229,11.678,11.678v0.76C453.573,303.687,448.345,308.916,441.895,308.916z" fill="#FFFFFF"/><path d="M441.895,411.242h-11.156c-6.45,0-11.678-5.229-11.678-11.678v-51.923c0-6.45,5.229-11.678,11.678-11.678    h11.156c6.45,0,11.678,5.229,11.678,11.678v51.923C453.573,406.014,448.345,411.242,441.895,411.242z" fill="#FFFFFF"/></g></g></svg>