<svg xmlns="http://www.w3.org/2000/svg" width="300.914" height="273.132" viewBox="0 0 300.914 273.132">
  <g id="Grupo_2" data-name="Grupo 2" transform="translate(-477.71 -244.856)">
    <path id="Subtração_1" data-name="Subtração 1" d="M180.8,309a128.1,128.1,0,0,1-44.432-7.932,127.614,127.614,0,0,1-40.147-23.99,129.09,129.09,0,0,1-17.674-19.01,127.442,127.442,0,0,1-21.674-44.74,128.519,128.519,0,0,1,2.371-73,127.5,127.5,0,0,1,10.279-22.994,129.341,129.341,0,0,1,35.829-40.062,127.586,127.586,0,0,1,49.065-21.819,128.373,128.373,0,0,1,70.914,5.182,127.612,127.612,0,0,1,40.147,23.989,129.088,129.088,0,0,1,17.673,19.01,127.444,127.444,0,0,1,21.674,44.74,128.522,128.522,0,0,1-2.371,73A127.5,127.5,0,0,1,292.18,244.37a129.325,129.325,0,0,1-35.829,40.062,127.589,127.589,0,0,1-49.064,21.819A129.134,129.134,0,0,1,180.8,309Zm-62.532-93.2a38.557,38.557,0,0,0-12.289,2,43.974,43.974,0,0,0-11.554,6,31.627,31.627,0,0,0-12.106,16.022c-3.282,9.994-1.8,18.948,4.409,26.613,3.06,3.772,7.038,5.694,10.526,7.2a41.671,41.671,0,0,0,16.534,3.606,37.77,37.77,0,0,0,12.135-2.031,47.406,47.406,0,0,0,11.82-6.088A30.452,30.452,0,0,0,151.3,244c.12-5.034.124-10.086.129-14.971l.01-4.288c.022-7.187,0-14.488-.015-21.548l-.005-2.01c-.044-14.253-.09-28.991.183-43.547,0-.044,0-.087,0-.13s0-.082,0-.122l.019-.005.232-.067a375.757,375.757,0,0,1,44.735-10.183,242.476,242.476,0,0,1,25.54-2.97c-.033,18.989-.031,35.982.005,51.952a32.8,32.8,0,0,0-5.569-.667c-.529-.015-1.06-.023-1.578-.023a42.344,42.344,0,0,0-16.953,3.308,38.768,38.768,0,0,0-13.467,9.858c-6.153,6.875-8.739,15-7.48,23.494,1.535,10.41,7.788,17.82,18.583,22.025a37.8,37.8,0,0,0,13.752,2.658,41.6,41.6,0,0,0,20.541-5.812c11.457-6.484,17.512-16.811,17.512-29.863V162.024c-.05-10.667-.039-20.813-.03-29.764v-.287c.014-14.931.028-29.034-.223-42.957-.079-4.1-2.624-6.7-6.64-6.789-.379-.012-.776-.018-1.178-.018-1.965,0-3.958.141-5.886.277l-.163.012-1.229.085c-13.095.858-25.909,1.783-38.713,3.653-23.118,3.377-43.67,8.736-62.83,16.382a6.5,6.5,0,0,0-4.211,5.48,46.109,46.109,0,0,0-.222,5.494v.093c-.01,33.672-.02,68.49.01,102.875A42.463,42.463,0,0,0,118.272,215.8Z" transform="translate(447 207)" fill="#4384ec"/>
    <path id="Caminho_15" data-name="Caminho 15" d="M301,103.286a127.8,127.8,0,0,0-41.128-24.344q2.534,2.013,4.993,4.173A128.169,128.169,0,0,1,136.75,299.922,128.148,128.148,0,0,0,301,103.286Z" transform="translate(416.474 190.322)" fill="#2c6cd3"/>
    <path id="Caminho_18" data-name="Caminho 18" d="M164.628,290.63l2.026,24.552,10.315,14.063-.057.4a9.531,9.531,0,0,1-11.148,8.033l-.374-.068a3.407,3.407,0,0,0-2.362,6.293c11.247,6.451,25.083,14.39,31.991,18.355a9.94,9.94,0,0,0,8.959.474l7.651-3.37a11.483,11.483,0,0,1,10.472.624l16.34,9.659.033.02a7.833,7.833,0,0,0,7.127.44l15.612-6.813a7.446,7.446,0,0,0,4.452-6.343l.208-3.22a7.445,7.445,0,0,1,7.27-6.963l11.815-.253a13.565,13.565,0,0,0,2.558-.3l7.648-1.642a13.565,13.565,0,0,0,9.648-7.984l8.815-20.87a5.928,5.928,0,0,0,.137-4.258l-1.818-5.222a5.932,5.932,0,0,1,2.642-7.091h0a5.932,5.932,0,0,1,8.87,4.641l.448,5.3a8.387,8.387,0,0,0,11.292,7.15l6.763-2.527a127.9,127.9,0,0,0,11.064-48.464l-1.214-1.371a21.59,21.59,0,0,0-24.545-5.58L303.264,272.47c-6.748,3.067-8.243,8.933-10.526,13.4a17.939,17.939,0,0,0-1.708,5.823,7.906,7.906,0,0,1-9.228,6.706l-3.746-.673a5.676,5.676,0,0,0-5.434,9.134l2.568,3.207a20.24,20.24,0,0,1,4.432,12.068l.068,2.386a6.67,6.67,0,0,1-8.8,6.51,9.5,9.5,0,0,0-10.428,2.7l-5.953,7.086a14.125,14.125,0,0,1-16.711-10.044l-8.458-30.815a21.539,21.539,0,0,0-20.216-17.3l-1.859-.069a10.392,10.392,0,0,1-9.176-6.312l-.1-.238a10.855,10.855,0,0,0-16.547-4.432c-4.353,3.3-9.118,6.9-12.543,9.486A10.843,10.843,0,0,0,164.628,290.63Z" transform="translate(408.915 129.409)" fill="#fff"/>
    <path id="Caminho_19" data-name="Caminho 19" d="M70.348,147.058l9.744-2.8,3.082,1.169a6.136,6.136,0,0,0,8.022-7.6l-.564-1.767,17.633-17.862a6.747,6.747,0,0,1,9.987.423h0a6.747,6.747,0,0,1-2.3,10.416l-1.74.822a5.587,5.587,0,0,0-1.99,8.524l3.132,3.949a5.587,5.587,0,0,1,.721,5.757l-5.128,11.44a6.136,6.136,0,0,1-7.527,5.837l-5.346-1.245a72.791,72.791,0,0,0-31.3-.379l-1.857.385a128.633,128.633,0,0,0-2.738,45.367L73.33,219.3a2.936,2.936,0,0,0,4.629-3.383l-2.11-4.816a2.934,2.934,0,0,1-.205-1.669l2.942-17.354a14.393,14.393,0,0,1,18.839-3.7l11.2,6.656a19.365,19.365,0,0,0,4.418.223l6.759-.434a15.547,15.547,0,0,0,13.3-9.394l5.744-13.407a7.98,7.98,0,0,0-.394-7.079h0a7.98,7.98,0,0,1-.253-7.39l5.909-12.309a7.978,7.978,0,0,1,2.925-3.288l5.033-3.188a8.882,8.882,0,0,0,1.113-14.174l-7.119-6.26a8.882,8.882,0,0,1-.939-12.379l7.747-9.234a8.862,8.862,0,0,1,11.408-1.868h0a8.862,8.862,0,0,0,11.4-1.864l10.8-12.855s2.375-8.087,3.938-13.813A128.992,128.992,0,0,0,171.4,67.6l-4.273,5.542a37.736,37.736,0,0,1-21.277,13.7l-.294.069a8.868,8.868,0,0,1-10.931-8.3v0a128.516,128.516,0,0,0-64.276,68.456Z" transform="translate(437.772 192.722)" fill="#fff"/>
    <path id="Caminho_20" data-name="Caminho 20" d="M67.216,312.85c-16.7,0-29.751-4.886-38.143-14.574-14.323-16.535-12.851-44.6,4.144-79.028a5.212,5.212,0,0,1,9.347,4.615c-14.8,29.983-16.847,54.618-5.612,67.589,11.408,13.17,36.559,14.5,69,3.656C140.38,283.6,179.176,260.077,215.2,228.874s64.839-66.247,81.14-98.676c15.364-30.565,17.633-55.649,6.225-68.819-11.984-13.835-38.712-14.619-73.333-2.153a5.212,5.212,0,1,1-3.532-9.807c39.468-14.212,69.564-12.39,84.744,5.135,14.522,16.764,12.82,45.292-4.79,80.325-16.9,33.619-46.6,69.8-83.629,101.874s-77.076,56.31-112.762,68.241C93.564,310.243,79.416,312.85,67.216,312.85Z" transform="translate(458.403 204.914)" fill="#f2f2f2"/>
  </g>
</svg>
